PathFileType	3	(X/Y/Z)	running_2__view1_aligned.trc
DataRate	CameraRate	NumFrames	NumMarkers	Units	OrigDataRate	OrigDataStartFrame	OrigNumFrames
100.0	100.0	7	19	mm	100.0	278	6354
Frame#	Time	pelvis			neck			head			hip_left			hip_right			knee_left			knee_right			ankle_left			ankle_right			heel_left			heel_right			toe_left			toe_right			shoulder_left			shoulder_right			elbow_left			elbow_right			wrist_left			wrist_right			
		X1	Y1	Z1	X2	Y2	Z2	X3	Y3	Z3	X4	Y4	Z4	X5	Y5	Z5	X6	Y6	Z6	X7	Y7	Z7	X8	Y8	Z8	X9	Y9	Z9	X10	Y10	Z10	X11	Y11	Z11	X12	Y12	Z12	X13	Y13	Z13	X14	Y14	Z14	X15	Y15	Z15	X16	Y16	Z16	X17	Y17	Z17	X18	Y18	Z18	X19	Y19	Z19	
278	2.77000	88.435193	955.830939	26.931766	60.018276	1502.497362	139.153419	84.288997	1580.613808	284.006355	163.974362	958.518651	26.148918	12.896356	953.143275	27.714279	140.796463	564.728081	247.533860	-77.131832	530.277153	98.985983	139.913014	111.982824	318.257810	-142.157064	306.517731	-279.798981	143.777435	44.302496	299.538717	-139.688941	321.626032	-341.184928	109.844398	139.308861	547.934471	-149.646070	80.772560	-283.717985	220.915651	1504.464421	65.227960	-109.964641	1433.859176	114.474699	383.034027	1294.520017	7.824824	-212.658315	1170.319881	111.372577	544.140355	1288.354847	147.029475	-160.272877	1231.118121	360.144008
279	2.78000	85.837144	954.649270	28.502987	57.008510	1501.470778	141.244676	80.547577	1579.584389	286.260580	161.415167	957.306173	27.254076	10.259453	951.992415	29.751564	139.780419	562.241629	241.767789	-76.050633	530.752539	107.740905	136.254754	116.552186	297.101698	-139.494367	301.078573	-258.490005	139.323588	51.213124	276.841241	-137.313854	313.633072	-318.738082	108.102382	135.709160	520.602648	-146.366075	82.680982	-254.755618	218.709354	1502.951647	69.397506	-112.985985	1432.969100	115.895107	376.809075	1290.052923	15.254734	-213.417178	1168.788408	112.539917	525.638278	1280.172341	157.739069	-161.588627	1222.696790	359.823595
280	2.79000	83.239094	953.467601	30.074208	53.998744	1500.444195	143.335933	76.806157	1578.554970	288.514806	158.855972	956.093695	28.359234	7.622551	950.841556	31.788848	138.764376	559.755176	236.001718	-74.969434	531.227924	116.495828	132.596493	121.121547	275.945587	-136.831670	295.639414	-237.181028	134.869741	58.123752	254.143764	-134.938767	305.640111	-296.291237	106.360366	132.109459	493.270824	-143.086079	84.589403	-225.793251	216.503058	1501.438874	73.567051	-116.007329	1432.079025	117.315514	370.584122	1285.585829	22.684644	-214.176042	1167.256936	113.707257	507.136200	1271.989835	168.448663	-162.904377	1214.275459	359.503182
281	2.80000	80.641045	952.285933	31.645429	50.988979	1499.417611	145.427190	73.064737	1577.525551	290.769031	156.296778	954.881217	29.464392	4.985648	949.690696	33.826133	137.748332	557.268724	230.235647	-73.888235	531.703310	125.250751	128.938233	125.690909	254.789476	-134.168973	290.200256	-215.872051	130.415893	65.034380	231.446288	-132.563681	297.647150	-273.844391	104.618350	128.509757	465.939000	-139.806083	86.497825	-196.830884	214.296761	1499.926101	77.736596	-119.028673	1431.188949	118.735922	364.359169	1281.118735	30.114554	-214.934905	1165.725463	114.874597	488.634123	1263.807329	179.158257	-164.220126	1205.854129	359.182770
282	2.81000	78.042996	951.104264	33.216650	47.979213	1498.391028	147.518447	69.323316	1576.496132	293.023256	153.737583	953.668739	30.569550	2.348746	948.539837	35.863418	136.732288	554.782272	224.469576	-72.807036	532.178696	134.005673	125.279973	130.260270	233.633365	-131.506276	284.761097	-194.563075	125.962046	71.945008	208.748811	-130.188594	289.654189	-251.397545	102.876334	124.910056	438.607177	-136.526088	88.406246	-167.868516	212.090464	1498.413328	81.906141	-122.050017	1430.298874	120.156329	358.134216	1276.651641	37.544465	-215.693769	1164.193991	116.041937	470.132046	1255.624824	189.867851	-165.535876	1197.432798	358.862357
283	2.82000	75.444947	949.922595	34.787871	44.969447	1497.364445	149.609704	65.581896	1575.466713	295.277481	151.178388	952.456261	31.674709	-0.288157	947.388978	37.900703	135.716245	552.295819	218.703505	-71.725837	532.654082	142.760596	121.621712	134.829632	212.477254	-128.843579	279.321938	-173.254098	121.508199	78.855635	186.051335	-127.813507	281.661228	-228.950699	101.134318	121.310355	411.275353	-133.246092	90.314668	-138.906149	209.884168	1496.900555	86.075687	-125.071361	1429.408799	121.576737	351.909263	1272.184547	44.974375	-216.452632	1162.662518	117.209277	451.629968	1247.442318	200.577445	-166.851626	1189.011467	358.541944
284	2.83000	72.846898	948.740926	36.359092	41.959682	1496.337861	151.700961	61.840476	1574.437294	297.531706	148.619193	951.243783	32.779867	-2.925059	946.238118	39.937988	134.700201	549.809367	212.937434	-70.644638	533.129468	151.515519	117.963452	139.398993	191.321142	-126.180882	273.882780	-151.945122	117.054352	85.766263	163.353859	-125.438421	273.668267	-206.503853	99.392303	117.710654	383.943530	-129.966096	92.223090	-109.943782	207.677871	1495.387782	90.245232	-128.092704	1428.518723	122.997144	345.684311	1267.717453	52.404285	-217.211496	1161.131046	118.376617	433.127891	1239.259812	211.287039	-168.167376	1180.590137	358.221531
